<svg xmlns="http://www.w3.org/2000/svg" viewBox="0 0 393 405" width="100%" height="100%">
  <g id="01_ears">
    <path d="M0 0 C0.113 0.32 0.113 0.32 0.688 1.938 C2 4 2 4 4.582 4.629 C5.38 4.751 6.178 4.874 7 5 C6.743 6.586 6.469 8.168 6.188 9.75 C6.037 10.632 5.886 11.513 5.73 12.422 C4.937 15.222 3.973 16.873 2 19 C1.34 19 0.68 19 0 19 C0 19.66 0 20.32 0 21 C-2.688 21.812 -2.688 21.812 -6 22 C-8.634 19.951 -10.437 18.256 -11.812 15.188 C-12.596 6.051 -12.596 6.051 -10.938 3.125 C-7.604 1.189 -3.87 0 0 0 Z " fill="#060504" transform="translate(324,95)"/>
    <path d="M0 0 C2.286 3.866 4.022 6.804 3.938 11.375 C3 14 3 14 0 16 C-4.215 16.608 -8.022 16.319 -12.062 15 C-14.346 12.643 -14.29 11.981 -14.312 8.812 C-14.261 8.183 -14.261 8.183 -14 5 C-13.01 5 -12.02 5 -11 5 C-10.876 4.361 -10.753 3.721 -10.625 3.062 C-10.419 2.382 -10.212 1.701 -10 1 C-6.785 -0.607 -3.564 -0.057 0 0 Z " fill="#130F0C" transform="translate(29,174)"/>
    <path d="M0 0 C0.66 0 1.32 0 2 0 C2.33 1.32 2.66 2.64 3 4 C3.99 3.67 4.98 3.34 6 3 C5.67 3.99 5.34 4.98 5 6 C4.931 8.228 4.915 10.458 4.938 12.688 C4.947 13.867 4.956 15.046 4.965 16.262 C4.976 17.165 4.988 18.069 5 19 C5.99 19 6.98 19 8 19 C7.67 20.98 7.34 22.96 7 25 C5.062 24.625 5.062 24.625 3 24 C2.67 23.34 2.34 22.68 2 22 C-1.875 23.875 -1.875 23.875 -3 25 C-4.666 25.041 -6.334 25.043 -8 25 C-7.217 23.828 -6.423 22.662 -5.625 21.5 C-5.184 20.85 -4.743 20.201 -4.289 19.531 C-3.864 19.026 -3.438 18.521 -3 18 C-2.34 18 -1.68 18 -1 18 C-0.32 12.117 0.232 6.852 -1 1 C-0.67 0.67 -0.34 0.34 0 0 Z " fill="#0C0B0B" transform="translate(337,195)"/>
    <path d="M0 0 C1.32 0.33 2.64 0.66 4 1 C2.195 10.938 2.195 10.938 -1 14 C-1.66 14 -2.32 14 -3 14 C-3 14.66 -3 15.32 -3 16 C-5.688 16.812 -5.688 16.812 -9 17 C-11.938 14.812 -11.938 14.812 -14 12 C-13.812 9.688 -13.812 9.688 -13 8 C-12.01 8.33 -11.02 8.66 -10 9 C-10 9.99 -10 10.98 -10 12 C-5.488 12.366 -5.488 12.366 -3.25 10.688 C-2 9 -2 9 -1 6 C-0.34 5.67 0.32 5.34 1 5 C1.625 2.938 1.625 2.938 2 1 C1.34 0.67 0.68 0.34 0 0 Z " fill="#100E0B" transform="translate(327,100)"/>
    <path d="M0 0 C0.99 0.33 1.98 0.66 3 1 C3 2.32 3 3.64 3 5 C3.99 5 4.98 5 6 5 C5.835 4.175 5.835 4.175 5 0 C5.99 0.165 5.99 0.165 11 1 C11.33 1.99 11.66 2.98 12 4 C12.66 4.33 13.32 4.66 14 5 C12.855 7.016 12.855 7.016 11 9 C8.301 9.172 8.301 9.172 5.312 8.75 C4.319 8.621 3.325 8.492 2.301 8.359 C1.542 8.241 0.782 8.122 0 8 C0 5.36 0 2.72 0 0 Z " fill="#030202" transform="translate(16,180)"/>
    <path d="M0 0 C0.33 0.66 0.66 1.32 1 2 C1.99 2 2.98 2 4 2 C3.67 3.98 3.34 5.96 3 8 C1.062 7.625 1.062 7.625 -1 7 C-1.33 6.34 -1.66 5.68 -2 5 C-5.875 6.875 -5.875 6.875 -7 8 C-8.666 8.041 -10.334 8.043 -12 8 C-11.217 6.828 -10.423 5.662 -9.625 4.5 C-9.184 3.85 -8.743 3.201 -8.289 2.531 C-8.076 2.279 -8.076 2.279 -7 1 C-6.34 1 -5.68 1 -5 1 C-5 1.66 -5 2.32 -5 3 C-3.35 3 -1.7 3 0 3 C0 2.01 0 1.02 0 0 Z " fill="#1C1C1E" transform="translate(341,212)"/>
    <path d="M0 0 C1.65 0 3.3 0 5 0 C5 0.66 5 1.32 5 2 C5.474 1.99 5.474 1.99 7.875 1.938 C11 2 11 2 13 3 C12.67 4.65 12.34 6.3 12 8 C11.34 8 10.68 8 10 8 C10 7.01 10 6.02 10 5 C9.01 5 8.02 5 7 5 C6.67 6.32 6.34 7.64 6 9 C5.01 8.34 4.02 7.68 3 7 C2.812 4.375 2.812 4.375 3 2 C2.01 2.33 1.02 2.66 0 3 C0 2.01 0 1.02 0 0 Z " fill="#010101" transform="translate(316,98)"/>
    <path d="M0 0 C-3.435 2.29 -4.985 2.178 -9 2 C-9 2.99 -9 3.98 -9 5 C-8.01 5.33 -7.02 5.66 -6 6 C-6.66 6 -7.32 6 -8 6 C-7.67 7.65 -7.34 9.3 -7 11 C-7.99 11 -8.98 11 -10 11 C-10.124 10.361 -10.247 9.721 -10.375 9.062 C-10.581 8.382 -10.788 7.701 -11 7 C-11.66 6.67 -12.32 6.34 -13 6 C-13 8.31 -13 10.62 -13 13 C-13.33 13 -13.66 13 -14 13 C-14 10.36 -14 7.72 -14 5 C-13.01 5 -12.02 5 -11 5 C-10.876 4.361 -10.753 3.721 -10.625 3.062 C-10.419 2.382 -10.212 1.701 -10 1 C-6.785 -0.607 -3.564 -0.057 0 0 Z " fill="#1B1B18" transform="translate(29,174)"/>
    <path d="M0 0 C0.66 1.65 1.32 3.3 2 5 C0.35 5 -1.3 5 -3 5 C-3 4.34 -3 3.68 -3 3 C-4.65 3 -6.3 3 -8 3 C-7.67 5.31 -7.34 7.62 -7 10 C-7.99 9.01 -8.98 8.02 -10 7 C-10.33 8.98 -10.66 10.96 -11 13 C-11.33 13 -11.66 13 -12 13 C-12.362 5.639 -12.362 5.639 -10.938 3.125 C-7.604 1.189 -3.87 0 0 0 Z " fill="#292625" transform="translate(324,95)"/>
    <path d="M0 0 C0.66 0 1.32 0 2 0 C2.167 4.921 2.248 8.503 0 13 C-0.99 12.67 -1.98 12.34 -3 12 C-2.69 10.562 -2.377 9.125 -2.062 7.688 C-1.888 6.887 -1.714 6.086 -1.535 5.262 C-1 3 -1 3 0 0 Z " fill="#1F1A13" transform="translate(156,5)"/>
    <path d="M0 0 C1.75 0.125 1.75 0.125 4 1 C8 6.111 8 6.111 8 10 C6.062 9.188 6.062 9.188 4 8 C3.67 7.01 3.34 6.02 3 5 C2.34 5 1.68 5 1 5 C0.835 4.175 0.835 4.175 0 0 Z " fill="#221A12" transform="translate(75,37)"/>
    <path d="M0 0 C0.99 0.33 1.98 0.66 3 1 C2.435 2.32 1.847 3.631 1.25 4.938 C0.925 5.668 0.6 6.399 0.266 7.152 C-1 9 -1 9 -3.141 9.754 C-3.447 9.795 -3.447 9.795 -5 10 C-3.844 6.088 -2.645 3.125 0 0 Z " fill="#17160F" transform="translate(247,22)"/>
    <path d="M0 0 C1.32 0.33 2.64 0.66 4 1 C4 2.98 4 4.96 4 7 C1.647 8.177 0.119 8.166 -2.5 8.188 C-3.294 8.202 -4.088 8.216 -4.906 8.23 C-7 8 -7 8 -9 6 C-6.03 6.33 -3.06 6.66 0 7 C1 3 1 3 0 0 Z " fill="#141311" transform="translate(27,182)"/>
    <path d="M0 0 C3.788 0.526 6.172 1.381 9 4 C9 4.66 9 5.32 9 6 C5.212 5.474 2.828 4.619 0 2 C0 1.34 0 0.68 0 0 Z " fill="#1D1B14" transform="translate(57,57)"/>
    <path d="M0 0 C0 1.32 0 2.64 0 4 C-2.97 4 -5.94 4 -9 4 C-9 3.01 -9 2.02 -9 1 C-5.942 0.456 -3.112 0 0 0 Z " fill="#010000" transform="translate(29,175)"/>
    <path d="M0 0 C1.32 0.33 2.64 0.66 4 1 C3.744 2.461 3.47 3.919 3.188 5.375 C3.037 6.187 2.886 6.999 2.73 7.836 C2 10 2 10 -1 12 C-2 9 -2 9 -1 6 C-0.34 5.67 0.32 5.34 1 5 C1.625 2.938 1.625 2.938 2 1 C1.34 0.67 0.68 0.34 0 0 Z " fill="#191917" transform="translate(327,100)"/>
    <path d="M0 0 C1.32 0.33 2.64 0.66 4 1 C4.33 3.31 4.66 5.62 5 8 C2 7 2 7 0 4 C0 2.68 0 1.36 0 0 Z " fill="#1B1410" transform="translate(112,21)"/>
    <path d="M0 0 C0.66 0.33 1.32 0.66 2 1 C2.407 3.322 2.744 5.657 3 8 C1.68 7.67 0.36 7.34 -1 7 C-1.043 5 -1.041 3 -1 1 C-0.67 0.67 -0.34 0.34 0 0 Z " fill="#010000" transform="translate(314,101)"/>
    <path d="M0 0 C0.66 0 1.32 0 2 0 C2.33 1.32 2.66 2.64 3 4 C3.99 3.67 4.98 3.34 6 3 C5.67 3.99 5.34 4.98 5 6 C3.68 5.67 2.36 5.34 1 5 C0.67 5.66 0.34 6.32 0 7 C-0.381 5.009 -0.713 3.007 -1 1 C-0.67 0.67 -0.34 0.34 0 0 Z " fill="#222120" transform="translate(337,195)"/>
    <path d="M0 0 C2.062 0.438 2.062 0.438 4 1 C2.35 2.65 0.7 4.3 -1 6 C-1.66 5.67 -2.32 5.34 -3 5 C-1.125 1.125 -1.125 1.125 0 0 Z " fill="#1E1D15" transform="translate(291,55)"/>
    <path d="M0 0 C0.99 0.33 1.98 0.66 3 1 C2.75 3.375 2.75 3.375 2 6 C-0.062 7.312 -0.062 7.312 -2 8 C-1.333 5.333 -0.667 2.667 0 0 Z " fill="#1F1A12" transform="translate(201,9)"/>
    <path d="M0 0 C1.32 0 2.64 0 4 0 C4 1.32 4 2.64 4 4 C1.69 4 -0.62 4 -3 4 C-1.75 2 -1.75 2 0 0 Z " fill="#191410" transform="translate(91,126)"/>
    <path d="M0 0 C0.66 0 1.32 0 2 0 C2.33 2.31 2.66 4.62 3 7 C2.01 6.01 1.02 5.02 0 4 C-0.33 5.98 -0.66 7.96 -1 10 C-1.33 10 -1.66 10 -2 10 C-2.195 3.945 -2.195 3.945 -2 2 C-1.34 1.34 -0.68 0.68 0 0 Z " fill="#1E1C16" transform="translate(314,98)"/>
    <path d="M0 0 C0.99 0.33 1.98 0.66 3 1 C2.67 2.32 2.34 3.64 2 5 C0.68 5.33 -0.64 5.66 -2 6 C-2 4.35 -2 2.7 -2 1 C-1.34 0.67 -0.68 0.34 0 0 Z " fill="#181811" transform="translate(303,213)"/>
    <path d="M0 0 C2.625 0.938 2.625 0.938 5 2 C4.67 2.99 4.34 3.98 4 5 C2.02 4.34 0.04 3.68 -2 3 C-2 2.34 -2 1.68 -2 1 C-1.34 0.67 -0.68 0.34 0 0 Z " fill="#242319" transform="translate(331,143)"/>
    <path d="M0 0 C1.98 0.66 3.96 1.32 6 2 C6 2.99 6 3.98 6 5 C2.73 4.436 1.174 3.5 -1 1 C-0.67 0.67 -0.34 0.34 0 0 Z " fill="#241713" transform="translate(35,90)"/>
    <path d="M0 0 C0.99 0 1.98 0 3 0 C2.67 1.32 2.34 2.64 2 4 C0.35 4 -1.3 4 -3 4 C-1.688 2 -1.688 2 0 0 Z " fill="#0F1010" transform="translate(332,216)"/>
    <path d="M0 0 C1 3 1 3 1 7 C-0.32 7 -1.64 7 -3 7 C-1.125 1.125 -1.125 1.125 0 0 Z " fill="#000001" transform="translate(339,208)"/>
    <path d="M0 0 C0.66 0.165 0.66 0.165 4 1 C4 1.66 4 2.32 4 3 C2.35 2.67 0.7 2.34 -1 2 C-0.67 1.34 -0.34 0.68 0 0 Z " fill="#2F2B19" transform="translate(22,137)"/>
    <path d="M0 0 C0.99 0 1.98 0 3 0 C2.67 1.32 2.34 2.64 2 4 C1.34 3.67 0.68 3.34 0 3 C0 2.01 0 1.02 0 0 Z " fill="#1E150F" transform="translate(330,167)"/>
    <path d="M0 0 C0.66 0 1.32 0 2 0 C2 0.99 2 1.98 2 3 C1.01 3 0.02 3 -1 3 C-0.67 2.01 -0.34 1.02 0 0 Z " fill="#2D2A22" transform="translate(316,204)"/>
    <path d="M0 0 C0.66 0 1.32 0 2 0 C2 0.99 2 1.98 2 3 C1.01 2.67 0.02 2.34 -1 2 C-0.67 1.34 -0.34 0.68 0 0 Z " fill="#2C1F0A" transform="translate(325,190)"/>
    <path d="M0 0 C0.66 0 1.32 0 2 0 C2 0.66 2 1.32 2 2 C1.34 2 0.68 2 0 2 C0 1.34 0 0.68 0 0 Z " fill="#302E1A" transform="translate(310,210)"/>
    <path d="M0 0 C0.33 0.66 0.66 1.32 1 2 C0.34 1.67 -0.32 1.34 -1 1 C-0.67 0.67 -0.34 0.34 0 0 Z " fill="#161612" transform="translate(19,140)"/>
    <path d="" fill="#343432" transform="translate(0,0)"/>
    <path d="" fill="#41361B" transform="translate(0,0)"/>
  </g>
</svg>
