<svg xmlns="http://www.w3.org/2000/svg" viewBox="0 0 256 256"><g transform="translate(128 228)"><ellipse cx="34" cy="-12" rx="21.0" ry="17.5" fill="#e8d0a0" stroke="#503e38" stroke-width="3.3" stroke-linecap="round" stroke-linejoin="round"/><ellipse cx="-34" cy="-12" rx="21.0" ry="17.5" fill="#e8d0a0" stroke="#503e38" stroke-width="3.3" stroke-linecap="round" stroke-linejoin="round"/><ellipse cx="0" cy="-69" rx="71.5" ry="69.5" fill="#efddb1" stroke="#503e38" stroke-width="3.3" stroke-linecap="round" stroke-linejoin="round"/><path d="M -14 -50 Q 0 -43 14 -50" fill="none" stroke="#c7aa83" stroke-width="2" stroke-linecap="round" stroke-linejoin="round"/><ellipse cx="68" cy="-66" rx="20.0" ry="34.0" fill="#eddaad" stroke="#503e38" stroke-width="3.3" stroke-linecap="round" stroke-linejoin="round"/><ellipse cx="-68" cy="-66" rx="20.0" ry="34.0" fill="#eddaad" stroke="#503e38" stroke-width="3.3" stroke-linecap="round" stroke-linejoin="round"/><ellipse cx="0" cy="-133" rx="71.5" ry="54.5" fill="#f4e2b7" stroke="#503e38" stroke-width="3.3" stroke-linecap="round" stroke-linejoin="round"/><path d="M -13 -187 L -16 -198 M 0 -186 L 0 -200 M 13 -187 L 16 -198" fill="none" stroke="#503e38" stroke-width="3.5" stroke-linecap="round" stroke-linejoin="round"/><ellipse cx="-49" cy="-113" rx="9.0" ry="4.5" fill="#eeb9a9" stroke="none" stroke-width="3.3" stroke-linecap="round" stroke-linejoin="round"/><ellipse cx="49" cy="-113" rx="9.0" ry="4.5" fill="#eeb9a9" stroke="none" stroke-width="3.3" stroke-linecap="round" stroke-linejoin="round"/><path d="M -31 -102 Q -10 -113 0 -108 Q 11 -113 31 -102 Q 20 -79 0 -84 Q -19 -79 -31 -102 Z" fill="#c8a77f" stroke="#503e38" stroke-width="3.3" stroke-linecap="round" stroke-linejoin="round"/><path d="M -23 -101 Q 0 -93 23 -101" fill="none" stroke="#503e38" stroke-width="2.6" stroke-linecap="round" stroke-linejoin="round"/><ellipse cx="0" cy="-141" rx="28.5" ry="24.0" fill="#fffdf4" stroke="#503e38" stroke-width="3.3" stroke-linecap="round" stroke-linejoin="round"/><ellipse cx="0" cy="-139" rx="6.5" ry="13.0" fill="#493831" stroke="none" stroke-width="3.3" stroke-linecap="round" stroke-linejoin="round"/><ellipse cx="-3" cy="-146" rx="2.0" ry="3.0" fill="#ffffff" stroke="none" stroke-width="3.3" stroke-linecap="round" stroke-linejoin="round"/></g></svg>