<?xml version="1.0" encoding="UTF-8"?>
<svg xmlns="http://www.w3.org/2000/svg" viewBox="0 0 400 400" width="100%" height="100%">

  <g id="Cape">
    <!-- Cape folds & main volume wrapped under chin -->
    <path d="M 115,220 
             C 125,212 155,210 200,210 
             C 245,210 275,212 285,220 
             C 305,235 320,265 310,290 
             C 295,305 260,312 200,312 
             C 140,312 105,305 90,290 
             C 80,265 95,235 115,220 Z" 
          fill="#FFFFFF" stroke="#231F20" stroke-width="4.5" stroke-linejoin="round"/>
    
    <!-- Cape interior knot / neck scarf wrap creases -->
    <path d="M 145,225 C 170,240 230,240 255,225" fill="none" stroke="#CBD5E1" stroke-width="3" stroke-linecap="round"/>
    <path d="M 160,250 C 180,265 220,265 240,250" fill="none" stroke="#E2E8F0" stroke-width="2.5" stroke-linecap="round"/>
    <path d="M 185,235 Q 200,265 215,235" fill="none" stroke="#231F20" stroke-width="3" stroke-linecap="round"/>
  </g>

</svg>
